<svg xmlns="http://www.w3.org/2000/svg" viewBox="0 0 1600 1200" width="1600" height="1200" fill="none" stroke="#000" stroke-linecap="square" stroke-linejoin="miter" role="presentation" aria-hidden="true"><g class="bp-grid"><path d="M40 0L40 1200" stroke-width="0.5"/><path d="M80 0L80 1200" stroke-width="0.5"/><path d="M120 0L120 1200" stroke-width="0.5"/><path d="M160 0L160 1200" stroke-width="0.5"/><path d="M200 0L200 1200" stroke-width="0.5"/><path d="M240 0L240 1200" stroke-width="0.5"/><path d="M280 0L280 1200" stroke-width="0.5"/><path d="M320 0L320 1200" stroke-width="0.5"/><path d="M360 0L360 1200" stroke-width="0.5"/><path d="M400 0L400 1200" stroke-width="0.5"/><path d="M440 0L440 1200" stroke-width="0.5"/><path d="M480 0L480 1200" stroke-width="0.5"/><path d="M520 0L520 1200" stroke-width="0.5"/><path d="M560 0L560 1200" stroke-width="0.5"/><path d="M600 0L600 1200" stroke-width="0.5"/><path d="M640 0L640 1200" stroke-width="0.5"/><path d="M680 0L680 1200" stroke-width="0.5"/><path d="M720 0L720 1200" stroke-width="0.5"/><path d="M760 0L760 1200" stroke-width="0.5"/><path d="M800 0L800 1200" stroke-width="0.5"/><path d="M840 0L840 1200" stroke-width="0.5"/><path d="M880 0L880 1200" stroke-width="0.5"/><path d="M920 0L920 1200" stroke-width="0.5"/><path d="M960 0L960 1200" stroke-width="0.5"/><path d="M1000 0L1000 1200" stroke-width="0.5"/><path d="M1040 0L1040 1200" stroke-width="0.5"/><path d="M1080 0L1080 1200" stroke-width="0.5"/><path d="M1120 0L1120 1200" stroke-width="0.5"/><path d="M1160 0L1160 1200" stroke-width="0.5"/><path d="M1200 0L1200 1200" stroke-width="0.5"/><path d="M1240 0L1240 1200" stroke-width="0.5"/><path d="M1280 0L1280 1200" stroke-width="0.5"/><path d="M1320 0L1320 1200" stroke-width="0.5"/><path d="M1360 0L1360 1200" stroke-width="0.5"/><path d="M1400 0L1400 1200" stroke-width="0.5"/><path d="M1440 0L1440 1200" stroke-width="0.5"/><path d="M1480 0L1480 1200" stroke-width="0.5"/><path d="M1520 0L1520 1200" stroke-width="0.5"/><path d="M1560 0L1560 1200" stroke-width="0.5"/><path d="M0 40L1600 40" stroke-width="0.5"/><path d="M0 80L1600 80" stroke-width="0.5"/><path d="M0 120L1600 120" stroke-width="0.5"/><path d="M0 160L1600 160" stroke-width="0.5"/><path d="M0 200L1600 200" stroke-width="0.5"/><path d="M0 240L1600 240" stroke-width="0.5"/><path d="M0 280L1600 280" stroke-width="0.5"/><path d="M0 320L1600 320" stroke-width="0.5"/><path d="M0 360L1600 360" stroke-width="0.5"/><path d="M0 400L1600 400" stroke-width="0.5"/><path d="M0 440L1600 440" stroke-width="0.5"/><path d="M0 480L1600 480" stroke-width="0.5"/><path d="M0 520L1600 520" stroke-width="0.5"/><path d="M0 560L1600 560" stroke-width="0.5"/><path d="M0 600L1600 600" stroke-width="0.5"/><path d="M0 640L1600 640" stroke-width="0.5"/><path d="M0 680L1600 680" stroke-width="0.5"/><path d="M0 720L1600 720" stroke-width="0.5"/><path d="M0 760L1600 760" stroke-width="0.5"/><path d="M0 800L1600 800" stroke-width="0.5"/><path d="M0 840L1600 840" stroke-width="0.5"/><path d="M0 880L1600 880" stroke-width="0.5"/><path d="M0 920L1600 920" stroke-width="0.5"/><path d="M0 960L1600 960" stroke-width="0.5"/><path d="M0 1000L1600 1000" stroke-width="0.5"/><path d="M0 1040L1600 1040" stroke-width="0.5"/><path d="M0 1080L1600 1080" stroke-width="0.5"/><path d="M0 1120L1600 1120" stroke-width="0.5"/><path d="M0 1160L1600 1160" stroke-width="0.5"/></g><g class="bp-site"><rect x="40" y="40" width="1520" height="1120" stroke-width="1" stroke-dasharray="14 6 3 6"/></g><g class="bp-north"><circle cx="1472" cy="128" r="26" stroke-width="0.5"/><path d="M1472 148L1472 106" stroke-width="1"/><path d="M1472 106L1465 120" stroke-width="1"/><path d="M1472 106L1479 120" stroke-width="1"/></g><g class="bp-block"><rect x="80" y="80" width="480" height="120" stroke-width="1.5"/><path d="M80 160L560 160" stroke-width="1"/><path d="M80 200L560 200" stroke-width="0.5"/><path d="M140 80L140 160" stroke-width="1"/><path d="M200 80L200 160" stroke-width="1"/><path d="M260 80L260 160" stroke-width="1"/><path d="M320 80L320 160" stroke-width="1"/><path d="M380 80L380 160" stroke-width="1"/><path d="M440 80L440 160" stroke-width="1"/><path d="M500 80L500 160" stroke-width="1"/><path d="M100.4 160L118.4 160" stroke-width="0.5" stroke-dasharray="3 3"/><path d="M100.4 160A18 18 0 0 0 118.4 142" stroke-width="0.5"/><path d="M160.4 160L178.4 160" stroke-width="0.5" stroke-dasharray="3 3"/><path d="M160.4 160A18 18 0 0 0 178.4 142" stroke-width="0.5"/><path d="M220.4 160L238.4 160" stroke-width="0.5" stroke-dasharray="3 3"/><path d="M220.4 160A18 18 0 0 0 238.4 142" stroke-width="0.5"/><path d="M280.4 160L298.4 160" stroke-width="0.5" stroke-dasharray="3 3"/><path d="M280.4 160A18 18 0 0 0 298.4 142" stroke-width="0.5"/><path d="M340.4 160L358.4 160" stroke-width="0.5" stroke-dasharray="3 3"/><path d="M340.4 160A18 18 0 0 0 358.4 142" stroke-width="0.5"/><path d="M400.4 160L418.4 160" stroke-width="0.5" stroke-dasharray="3 3"/><path d="M400.4 160A18 18 0 0 0 418.4 142" stroke-width="0.5"/><path d="M460.4 160L478.4 160" stroke-width="0.5" stroke-dasharray="3 3"/><path d="M460.4 160A18 18 0 0 0 478.4 142" stroke-width="0.5"/><path d="M520.4 160L538.4 160" stroke-width="0.5" stroke-dasharray="3 3"/><path d="M520.4 160A18 18 0 0 0 538.4 142" stroke-width="0.5"/><path d="M80 80L80 48" stroke-width="0.5"/><path d="M560 80L560 48" stroke-width="0.5"/><path d="M80 54L560 54" stroke-width="0.5"/><path d="M75 59L85 49" stroke-width="0.5"/><path d="M555 59L565 49" stroke-width="0.5"/><rect x="80" y="260" width="300" height="120" stroke-width="1.5"/><path d="M80 260L380 260" stroke-width="1"/><path d="M80 300L380 300" stroke-width="0.5"/><path d="M140 300L140 380" stroke-width="1"/><path d="M200 300L200 380" stroke-width="1"/><path d="M260 300L260 380" stroke-width="1"/><path d="M320 300L320 380" stroke-width="1"/><path d="M100.4 300L118.4 300" stroke-width="0.5" stroke-dasharray="3 3"/><path d="M100.4 300A18 18 0 0 1 118.4 318" stroke-width="0.5"/><path d="M160.4 300L178.4 300" stroke-width="0.5" stroke-dasharray="3 3"/><path d="M160.4 300A18 18 0 0 1 178.4 318" stroke-width="0.5"/><path d="M220.4 300L238.4 300" stroke-width="0.5" stroke-dasharray="3 3"/><path d="M220.4 300A18 18 0 0 1 238.4 318" stroke-width="0.5"/><path d="M280.4 300L298.4 300" stroke-width="0.5" stroke-dasharray="3 3"/><path d="M280.4 300A18 18 0 0 1 298.4 318" stroke-width="0.5"/><path d="M340.4 300L358.4 300" stroke-width="0.5" stroke-dasharray="3 3"/><path d="M340.4 300A18 18 0 0 1 358.4 318" stroke-width="0.5"/><rect x="800" y="260" width="320" height="120" stroke-width="1.5"/><path d="M800 340L1120 340" stroke-width="1"/><path d="M800 380L1120 380" stroke-width="0.5"/><path d="M864 260L864 340" stroke-width="1"/><path d="M928 260L928 340" stroke-width="1"/><path d="M992 260L992 340" stroke-width="1"/><path d="M1056 260L1056 340" stroke-width="1"/><path d="M821.8 340L841 340" stroke-width="0.5" stroke-dasharray="3 3"/><path d="M821.8 340A19.2 19.2 0 0 0 841 320.8" stroke-width="0.5"/><path d="M885.8 340L905 340" stroke-width="0.5" stroke-dasharray="3 3"/><path d="M885.8 340A19.2 19.2 0 0 0 905 320.8" stroke-width="0.5"/><path d="M949.8 340L969 340" stroke-width="0.5" stroke-dasharray="3 3"/><path d="M949.8 340A19.2 19.2 0 0 0 969 320.8" stroke-width="0.5"/><path d="M1013.8 340L1033 340" stroke-width="0.5" stroke-dasharray="3 3"/><path d="M1013.8 340A19.2 19.2 0 0 0 1033 320.8" stroke-width="0.5"/><path d="M1077.8 340L1097 340" stroke-width="0.5" stroke-dasharray="3 3"/><path d="M1077.8 340A19.2 19.2 0 0 0 1097 320.8" stroke-width="0.5"/></g><g class="bp-quad"><rect x="440" y="260" width="280" height="200" stroke-width="1.5"/><path d="M580 260L580 460" stroke-width="0.5" stroke-dasharray="6 5"/><path d="M440 360L720 360" stroke-width="0.5" stroke-dasharray="6 5"/><circle cx="580" cy="360" r="34" stroke-width="1"/><circle cx="580" cy="360" r="20" stroke-width="0.5"/><path d="M440 460L440 496" stroke-width="0.5"/><path d="M720 460L720 496" stroke-width="0.5"/><path d="M440 490L720 490" stroke-width="0.5"/><path d="M435 495L445 485" stroke-width="0.5"/><path d="M715 495L725 485" stroke-width="0.5"/></g><g class="bp-corridor"><path d="M560 200L560 260" stroke-width="1"/><path d="M600 200L600 260" stroke-width="1"/><path d="M720 320L800 320" stroke-width="1"/><path d="M720 360L800 360" stroke-width="1"/><path d="M380 320L440 320" stroke-width="1"/><path d="M380 360L440 360" stroke-width="1"/></g><g class="bp-stair"><rect x="560" y="80" width="56" height="120" stroke-width="1"/><path d="M560 93.3L616 93.3" stroke-width="0.5"/><path d="M560 106.7L616 106.7" stroke-width="0.5"/><path d="M560 120L616 120" stroke-width="0.5"/><path d="M560 133.3L616 133.3" stroke-width="0.5"/><path d="M560 146.7L616 146.7" stroke-width="0.5"/><path d="M560 160L616 160" stroke-width="0.5"/><path d="M560 173.3L616 173.3" stroke-width="0.5"/><path d="M560 186.7L616 186.7" stroke-width="0.5"/><path d="M588 193.3L588 86.7" stroke-width="0.5"/><path d="M588 86.7L584 98.7" stroke-width="0.5"/><path d="M588 86.7L592 98.7" stroke-width="0.5"/><rect x="1136" y="520" width="56" height="104" stroke-width="1"/><path d="M1136 534.9L1192 534.9" stroke-width="0.5"/><path d="M1136 549.7L1192 549.7" stroke-width="0.5"/><path d="M1136 564.6L1192 564.6" stroke-width="0.5"/><path d="M1136 579.4L1192 579.4" stroke-width="0.5"/><path d="M1136 594.3L1192 594.3" stroke-width="0.5"/><path d="M1136 609.1L1192 609.1" stroke-width="0.5"/><path d="M1164 616.6L1164 527.4" stroke-width="0.5"/><path d="M1164 527.4L1160 540.8" stroke-width="0.5"/><path d="M1164 527.4L1168 540.8" stroke-width="0.5"/></g><g class="bp-library"><rect x="1200" y="260" width="280" height="180" stroke-width="1.5"/><path d="M1235 284L1235 416" stroke-width="0.5"/><path d="M1270 284L1270 416" stroke-width="0.5"/><path d="M1305 284L1305 416" stroke-width="0.5"/><path d="M1340 284L1340 416" stroke-width="0.5"/><path d="M1375 284L1375 416" stroke-width="0.5"/><path d="M1410 284L1410 416" stroke-width="0.5"/><path d="M1445 284L1445 416" stroke-width="0.5"/><path d="M1200 284L1480 284" stroke-width="0.5"/><path d="M1200 416L1480 416" stroke-width="0.5"/></g><g class="bp-field"><rect x="120" y="520" width="480" height="240" rx="120" stroke-width="1.5"/><rect x="142" y="542" width="436" height="196" rx="98" stroke-width="0.5"/><rect x="216" y="572" width="288" height="136" stroke-width="1"/><path d="M360 572L360 708" stroke-width="0.5"/><circle cx="360" cy="640" r="26" stroke-width="0.5"/><path d="M120 520L84 520" stroke-width="0.5"/><path d="M120 760L84 760" stroke-width="0.5"/><path d="M90 520L90 760" stroke-width="0.5"/><path d="M85 525L95 515" stroke-width="0.5"/><path d="M85 765L95 755" stroke-width="0.5"/></g><g class="bp-assembly"><rect x="680" y="536" width="360" height="192" stroke-width="1" stroke-dasharray="8 6"/><path d="M680 568L1040 568" stroke-width="0.5"/><path d="M680 600L1040 600" stroke-width="0.5"/><path d="M680 632L1040 632" stroke-width="0.5"/><path d="M680 664L1040 664" stroke-width="0.5"/><path d="M680 696L1040 696" stroke-width="0.5"/></g><g class="bp-section"><path d="M64 1080L1536 1080" stroke-width="1"/><path d="M64 1080L56 1089" stroke-width="0.5"/><path d="M80 1080L72 1089" stroke-width="0.5"/><path d="M96 1080L88 1089" stroke-width="0.5"/><path d="M112 1080L104 1089" stroke-width="0.5"/><path d="M128 1080L120 1089" stroke-width="0.5"/><path d="M144 1080L136 1089" stroke-width="0.5"/><path d="M160 1080L152 1089" stroke-width="0.5"/><path d="M176 1080L168 1089" stroke-width="0.5"/><path d="M192 1080L184 1089" stroke-width="0.5"/><path d="M208 1080L200 1089" stroke-width="0.5"/><path d="M224 1080L216 1089" stroke-width="0.5"/><path d="M240 1080L232 1089" stroke-width="0.5"/><path d="M256 1080L248 1089" stroke-width="0.5"/><path d="M272 1080L264 1089" stroke-width="0.5"/><path d="M288 1080L280 1089" stroke-width="0.5"/><path d="M304 1080L296 1089" stroke-width="0.5"/><path d="M320 1080L312 1089" stroke-width="0.5"/><path d="M336 1080L328 1089" stroke-width="0.5"/><path d="M352 1080L344 1089" stroke-width="0.5"/><path d="M368 1080L360 1089" stroke-width="0.5"/><path d="M384 1080L376 1089" stroke-width="0.5"/><path d="M400 1080L392 1089" stroke-width="0.5"/><path d="M416 1080L408 1089" stroke-width="0.5"/><path d="M432 1080L424 1089" stroke-width="0.5"/><path d="M448 1080L440 1089" stroke-width="0.5"/><path d="M464 1080L456 1089" stroke-width="0.5"/><path d="M480 1080L472 1089" stroke-width="0.5"/><path d="M496 1080L488 1089" stroke-width="0.5"/><path d="M512 1080L504 1089" stroke-width="0.5"/><path d="M528 1080L520 1089" stroke-width="0.5"/><path d="M544 1080L536 1089" stroke-width="0.5"/><path d="M560 1080L552 1089" stroke-width="0.5"/><path d="M576 1080L568 1089" stroke-width="0.5"/><path d="M592 1080L584 1089" stroke-width="0.5"/><path d="M608 1080L600 1089" stroke-width="0.5"/><path d="M624 1080L616 1089" stroke-width="0.5"/><path d="M640 1080L632 1089" stroke-width="0.5"/><path d="M656 1080L648 1089" stroke-width="0.5"/><path d="M672 1080L664 1089" stroke-width="0.5"/><path d="M688 1080L680 1089" stroke-width="0.5"/><path d="M704 1080L696 1089" stroke-width="0.5"/><path d="M720 1080L712 1089" stroke-width="0.5"/><path d="M736 1080L728 1089" stroke-width="0.5"/><path d="M752 1080L744 1089" stroke-width="0.5"/><path d="M768 1080L760 1089" stroke-width="0.5"/><path d="M784 1080L776 1089" stroke-width="0.5"/><path d="M800 1080L792 1089" stroke-width="0.5"/><path d="M816 1080L808 1089" stroke-width="0.5"/><path d="M832 1080L824 1089" stroke-width="0.5"/><path d="M848 1080L840 1089" stroke-width="0.5"/><path d="M864 1080L856 1089" stroke-width="0.5"/><path d="M880 1080L872 1089" stroke-width="0.5"/><path d="M896 1080L888 1089" stroke-width="0.5"/><path d="M912 1080L904 1089" stroke-width="0.5"/><path d="M928 1080L920 1089" stroke-width="0.5"/><path d="M944 1080L936 1089" stroke-width="0.5"/><path d="M960 1080L952 1089" stroke-width="0.5"/><path d="M976 1080L968 1089" stroke-width="0.5"/><path d="M992 1080L984 1089" stroke-width="0.5"/><path d="M1008 1080L1000 1089" stroke-width="0.5"/><path d="M1024 1080L1016 1089" stroke-width="0.5"/><path d="M1040 1080L1032 1089" stroke-width="0.5"/><path d="M1056 1080L1048 1089" stroke-width="0.5"/><path d="M1072 1080L1064 1089" stroke-width="0.5"/><path d="M1088 1080L1080 1089" stroke-width="0.5"/><path d="M1104 1080L1096 1089" stroke-width="0.5"/><path d="M1120 1080L1112 1089" stroke-width="0.5"/><path d="M1136 1080L1128 1089" stroke-width="0.5"/><path d="M1152 1080L1144 1089" stroke-width="0.5"/><path d="M1168 1080L1160 1089" stroke-width="0.5"/><path d="M1184 1080L1176 1089" stroke-width="0.5"/><path d="M1200 1080L1192 1089" stroke-width="0.5"/><path d="M1216 1080L1208 1089" stroke-width="0.5"/><path d="M1232 1080L1224 1089" stroke-width="0.5"/><path d="M1248 1080L1240 1089" stroke-width="0.5"/><path d="M1264 1080L1256 1089" stroke-width="0.5"/><path d="M1280 1080L1272 1089" stroke-width="0.5"/><path d="M1296 1080L1288 1089" stroke-width="0.5"/><path d="M1312 1080L1304 1089" stroke-width="0.5"/><path d="M1328 1080L1320 1089" stroke-width="0.5"/><path d="M1344 1080L1336 1089" stroke-width="0.5"/><path d="M1360 1080L1352 1089" stroke-width="0.5"/><path d="M1376 1080L1368 1089" stroke-width="0.5"/><path d="M1392 1080L1384 1089" stroke-width="0.5"/><path d="M1408 1080L1400 1089" stroke-width="0.5"/><path d="M1424 1080L1416 1089" stroke-width="0.5"/><path d="M1440 1080L1432 1089" stroke-width="0.5"/><path d="M1456 1080L1448 1089" stroke-width="0.5"/><path d="M1472 1080L1464 1089" stroke-width="0.5"/><path d="M1488 1080L1480 1089" stroke-width="0.5"/><path d="M1504 1080L1496 1089" stroke-width="0.5"/><path d="M1520 1080L1512 1089" stroke-width="0.5"/><path d="M120 1080V940H280V1080" stroke-width="1.5"/><path d="M120 1033.3L280 1033.3" stroke-width="0.5"/><path d="M120 986.7L280 986.7" stroke-width="0.5"/><rect x="130" y="1040.3" width="37.7" height="32.7" stroke-width="0.5"/><rect x="176.7" y="1040.3" width="37.7" height="32.7" stroke-width="0.5"/><rect x="223.3" y="1040.3" width="37.7" height="32.7" stroke-width="0.5"/><rect x="130" y="993.7" width="37.7" height="32.7" stroke-width="0.5"/><rect x="176.7" y="993.7" width="37.7" height="32.7" stroke-width="0.5"/><rect x="223.3" y="993.7" width="37.7" height="32.7" stroke-width="0.5"/><rect x="130" y="947" width="37.7" height="32.7" stroke-width="0.5"/><rect x="176.7" y="947" width="37.7" height="32.7" stroke-width="0.5"/><rect x="223.3" y="947" width="37.7" height="32.7" stroke-width="0.5"/><path d="M300 1080V880H540V1080" stroke-width="1.5"/><path d="M300 1030L540 1030" stroke-width="0.5"/><path d="M300 980L540 980" stroke-width="0.5"/><path d="M300 930L540 930" stroke-width="0.5"/><rect x="310" y="1037" width="35" height="36" stroke-width="0.5"/><rect x="354" y="1037" width="35" height="36" stroke-width="0.5"/><rect x="398" y="1037" width="35" height="36" stroke-width="0.5"/><rect x="442" y="1037" width="35" height="36" stroke-width="0.5"/><rect x="486" y="1037" width="35" height="36" stroke-width="0.5"/><rect x="310" y="987" width="35" height="36" stroke-width="0.5"/><rect x="354" y="987" width="35" height="36" stroke-width="0.5"/><rect x="398" y="987" width="35" height="36" stroke-width="0.5"/><rect x="442" y="987" width="35" height="36" stroke-width="0.5"/><rect x="486" y="987" width="35" height="36" stroke-width="0.5"/><rect x="310" y="937" width="35" height="36" stroke-width="0.5"/><rect x="354" y="937" width="35" height="36" stroke-width="0.5"/><rect x="398" y="937" width="35" height="36" stroke-width="0.5"/><rect x="442" y="937" width="35" height="36" stroke-width="0.5"/><rect x="486" y="937" width="35" height="36" stroke-width="0.5"/><rect x="310" y="887" width="35" height="36" stroke-width="0.5"/><rect x="354" y="887" width="35" height="36" stroke-width="0.5"/><rect x="398" y="887" width="35" height="36" stroke-width="0.5"/><rect x="442" y="887" width="35" height="36" stroke-width="0.5"/><rect x="486" y="887" width="35" height="36" stroke-width="0.5"/><path d="M560 1080V980H700V1080" stroke-width="1.5"/><path d="M560 1030L700 1030" stroke-width="0.5"/><rect x="570" y="1037" width="31" height="36" stroke-width="0.5"/><rect x="610" y="1037" width="31" height="36" stroke-width="0.5"/><rect x="650" y="1037" width="31" height="36" stroke-width="0.5"/><rect x="570" y="987" width="31" height="36" stroke-width="0.5"/><rect x="610" y="987" width="31" height="36" stroke-width="0.5"/><rect x="650" y="987" width="31" height="36" stroke-width="0.5"/><path d="M720 1080V904H920V1080" stroke-width="1.5"/><path d="M720 1021.3L920 1021.3" stroke-width="0.5"/><path d="M720 962.7L920 962.7" stroke-width="0.5"/><rect x="730" y="1028.3" width="36" height="44.7" stroke-width="0.5"/><rect x="775" y="1028.3" width="36" height="44.7" stroke-width="0.5"/><rect x="820" y="1028.3" width="36" height="44.7" stroke-width="0.5"/><rect x="865" y="1028.3" width="36" height="44.7" stroke-width="0.5"/><rect x="730" y="969.7" width="36" height="44.7" stroke-width="0.5"/><rect x="775" y="969.7" width="36" height="44.7" stroke-width="0.5"/><rect x="820" y="969.7" width="36" height="44.7" stroke-width="0.5"/><rect x="865" y="969.7" width="36" height="44.7" stroke-width="0.5"/><rect x="730" y="911" width="36" height="44.7" stroke-width="0.5"/><rect x="775" y="911" width="36" height="44.7" stroke-width="0.5"/><rect x="820" y="911" width="36" height="44.7" stroke-width="0.5"/><rect x="865" y="911" width="36" height="44.7" stroke-width="0.5"/><path d="M940 1080V880H1220V1080" stroke-width="1.5"/><path d="M940 1030L1220 1030" stroke-width="0.5"/><path d="M940 980L1220 980" stroke-width="0.5"/><path d="M940 930L1220 930" stroke-width="0.5"/><rect x="950" y="1037" width="34.3" height="36" stroke-width="0.5"/><rect x="993.3" y="1037" width="34.3" height="36" stroke-width="0.5"/><rect x="1036.7" y="1037" width="34.3" height="36" stroke-width="0.5"/><rect x="1080" y="1037" width="34.3" height="36" stroke-width="0.5"/><rect x="1123.3" y="1037" width="34.3" height="36" stroke-width="0.5"/><rect x="1166.7" y="1037" width="34.3" height="36" stroke-width="0.5"/><rect x="950" y="987" width="34.3" height="36" stroke-width="0.5"/><rect x="993.3" y="987" width="34.3" height="36" stroke-width="0.5"/><rect x="1036.7" y="987" width="34.3" height="36" stroke-width="0.5"/><rect x="1080" y="987" width="34.3" height="36" stroke-width="0.5"/><rect x="1123.3" y="987" width="34.3" height="36" stroke-width="0.5"/><rect x="1166.7" y="987" width="34.3" height="36" stroke-width="0.5"/><rect x="950" y="937" width="34.3" height="36" stroke-width="0.5"/><rect x="993.3" y="937" width="34.3" height="36" stroke-width="0.5"/><rect x="1036.7" y="937" width="34.3" height="36" stroke-width="0.5"/><rect x="1080" y="937" width="34.3" height="36" stroke-width="0.5"/><rect x="1123.3" y="937" width="34.3" height="36" stroke-width="0.5"/><rect x="1166.7" y="937" width="34.3" height="36" stroke-width="0.5"/><rect x="950" y="887" width="34.3" height="36" stroke-width="0.5"/><rect x="993.3" y="887" width="34.3" height="36" stroke-width="0.5"/><rect x="1036.7" y="887" width="34.3" height="36" stroke-width="0.5"/><rect x="1080" y="887" width="34.3" height="36" stroke-width="0.5"/><rect x="1123.3" y="887" width="34.3" height="36" stroke-width="0.5"/><rect x="1166.7" y="887" width="34.3" height="36" stroke-width="0.5"/><path d="M1240 1080V960H1400V1080" stroke-width="1.5"/><path d="M1240 1020L1400 1020" stroke-width="0.5"/><rect x="1250" y="1027" width="37.7" height="46" stroke-width="0.5"/><rect x="1296.7" y="1027" width="37.7" height="46" stroke-width="0.5"/><rect x="1343.3" y="1027" width="37.7" height="46" stroke-width="0.5"/><rect x="1250" y="967" width="37.7" height="46" stroke-width="0.5"/><rect x="1296.7" y="967" width="37.7" height="46" stroke-width="0.5"/><rect x="1343.3" y="967" width="37.7" height="46" stroke-width="0.5"/><path d="M120 1080L88 1080" stroke-width="0.5"/><path d="M120 880L88 880" stroke-width="0.5"/><path d="M94 1080L94 880" stroke-width="0.5"/><path d="M89 1085L99 1075" stroke-width="0.5"/><path d="M89 885L99 875" stroke-width="0.5"/></g><g class="bp-callout"><circle cx="240" cy="120" r="3" stroke-width="0.5"/><path d="M240 120L240 64" stroke-width="0.5"/><path d="M240 64L274 64" stroke-width="0.5"/><circle cx="580" cy="360" r="3" stroke-width="0.5"/><path d="M580 360L676 284" stroke-width="0.5"/><path d="M676 284L706 284" stroke-width="0.5"/><circle cx="1340" cy="350" r="3" stroke-width="0.5"/><path d="M1340 350L1340 438" stroke-width="0.5"/><path d="M1340 438L1370 438" stroke-width="0.5"/><circle cx="920" cy="340" r="3" stroke-width="0.5"/><path d="M920 340L976 284" stroke-width="0.5"/><path d="M976 284L1002 284" stroke-width="0.5"/></g></svg>
